<?xml version="1.0" standalone="no"?>
<!DOCTYPE svg PUBLIC "-//W3C//DTD SVG 20010904//EN"
 "http://www.w3.org/TR/2001/REC-SVG-20010904/DTD/svg10.dtd">
<svg version="1.0" xmlns="http://www.w3.org/2000/svg"
 width="460.000000pt" height="460.000000pt" viewBox="0 0 460.000000 460.000000"
 preserveAspectRatio="xMidYMid meet">
<metadata>
Created by potrace 1.14, written by Peter Selinger 2001-2017
</metadata>
<g transform="translate(0.000000,460.000000) scale(0.100000,-0.100000)"
fill="#000000" stroke="none">
<path d="M3638 4395 c-14 -38 -15 -45 -2 -56 12 -10 10 -15 -11 -35 -14 -13
-25 -28 -25 -33 0 -6 -10 -20 -22 -31 -20 -18 -21 -23 -9 -41 7 -12 8 -18 2
-14 -21 12 -11 -12 15 -36 31 -29 107 -143 126 -189 l14 -33 21 44 c12 24 24
57 28 73 5 26 7 27 19 11 11 -15 15 -16 37 -4 19 11 82 14 304 12 154 0 322
-4 373 -8 l92 -6 0 77 0 77 -47 -8 c-27 -4 -84 -9 -128 -11 -44 -2 -129 -5
-190 -8 -60 -3 -138 -5 -172 -5 -45 0 -63 -4 -63 -13 -1 -9 -5 -7 -14 4 -9 12
-26 17 -60 16 -26 0 -53 5 -59 11 -30 30 -75 -3 -78 -57 0 -9 -5 -3 -10 13 -5
17 -7 38 -5 48 2 9 0 17 -5 17 -5 0 -9 6 -9 13 0 7 -13 26 -30 42 -16 16 -30
37 -30 46 0 10 -4 21 -10 24 -5 3 -10 21 -10 38 0 18 -6 40 -13 49 -12 15 -15
12 -29 -27z m149 -307 c-3 -8 -6 -5 -6 6 -1 11 2 17 5 13 3 -3 4 -12 1 -19z
m-60 -130 c-3 -8 -6 -5 -6 6 -1 11 2 17 5 13 3 -3 4 -12 1 -19z"/>
<path d="M910 4373 c0 -7 -7 -13 -15 -13 -9 0 -15 -9 -15 -25 0 -14 -4 -25 -9
-25 -5 0 -13 -10 -17 -22 -3 -13 -13 -30 -20 -39 -8 -9 -18 -43 -23 -75 l-9
-59 -1 48 c-1 30 -5 47 -13 47 -9 0 -8 4 2 10 12 8 10 10 -8 10 -13 0 -20 -4
-17 -10 3 -5 -6 -12 -20 -16 -14 -3 -25 -10 -25 -14 0 -4 -26 -13 -57 -19 -45
-10 -103 -10 -258 -1 -110 6 -222 10 -248 10 -27 -1 -64 4 -83 10 -18 6 -43 9
-54 5 -18 -6 -20 -15 -20 -77 l0 -70 48 7 c49 8 348 17 530 16 88 0 107 -3
132 -21 17 -12 30 -18 30 -14 0 5 5 3 11 -3 16 -16 46 14 52 52 2 17 5 2 6
-32 1 -67 8 -96 22 -87 5 3 6 -2 2 -11 -3 -10 -1 -20 6 -24 18 -11 16 -205 -3
-265 -9 -30 -12 -55 -6 -65 5 -10 4 -24 -1 -34 -19 -33 -1 -17 20 19 12 19 19
40 15 45 -3 5 -1 8 4 7 15 -5 131 156 121 168 -5 6 -7 13 -4 15 2 3 7 30 9 60
5 58 23 119 36 119 11 0 21 131 14 183 -5 33 -12 47 -25 50 -10 3 -23 16 -28
29 -5 13 -20 37 -33 54 -14 16 -30 38 -36 49 -6 11 -12 14 -12 8z m-64 -753
c0 -12 -4 -16 -9 -11 -5 5 -6 14 -3 20 10 15 12 14 12 -9z"/>
<path d="M2014 4288 l-19 -23 23 19 c21 18 27 26 19 26 -2 0 -12 -10 -23 -22z"/>
<path d="M2960 4266 c0 -2 7 -7 16 -10 8 -3 12 -2 9 4 -6 10 -25 14 -25 6z"/>
<path d="M1080 4180 c-17 -10 -16 -128 1 -144 9 -8 10 -8 6 0 -4 7 15 16 51
24 31 8 65 19 76 26 10 7 24 10 31 8 7 -3 27 14 45 38 18 24 21 31 7 16 l-25
-26 -11 24 c-9 21 -18 24 -66 26 -87 2 -90 3 -95 10 -3 4 -12 3 -20 -2z"/>
<path d="M2431 4134 c0 -11 3 -14 6 -6 3 7 2 16 -1 19 -3 4 -6 -2 -5 -13z"/>
<path d="M1417 4095 c-15 -14 -27 -29 -27 -32 0 -4 14 6 30 22 28 26 34 35 27
35 -1 0 -15 -11 -30 -25z"/>
<path d="M1221 4073 c-7 -8 -11 -16 -8 -19 2 -2 10 2 17 11 17 20 9 27 -9 8z"/>
<path d="M1769 4023 c-13 -17 -13 -17 6 -3 11 8 22 16 24 17 2 2 0 3 -6 3 -6
0 -17 -8 -24 -17z"/>
<path d="M2453 4000 c0 -25 2 -35 4 -22 2 12 2 32 0 45 -2 12 -4 2 -4 -23z"/>
<path d="M1810 3999 c-7 -11 -10 -23 -7 -25 2 -2 9 7 15 21 14 30 7 33 -8 4z"/>
<path d="M1309 3983 c-13 -16 -12 -17 4 -4 9 7 17 15 17 17 0 8 -8 3 -21 -13z"/>
<path d="M1719 3983 c-13 -16 -12 -17 4 -4 9 7 17 15 17 17 0 8 -8 3 -21 -13z"/>
<path d="M2531 3954 c0 -11 3 -14 6 -6 3 7 2 16 -1 19 -3 4 -6 -2 -5 -13z"/>
<path d="M1647 3908 c-33 -42 -60 -84 -40 -63 22 24 84 105 79 105 -2 0 -20
-19 -39 -42z"/>
<path d="M1252 3910 c-12 -16 -22 -32 -22 -37 0 -4 11 8 25 27 14 19 25 35 25
37 0 8 -8 0 -28 -27z"/>
<path d="M1766 3900 c-22 -56 -19 -65 5 -11 11 24 18 46 15 48 -2 2 -11 -14
-20 -37z"/>
<path d="M3310 3935 c0 -5 10 -21 21 -35 13 -17 17 -18 10 -5 -17 33 -31 51
-31 40z"/>
<path d="M2542 3910 c0 -14 2 -19 5 -12 2 6 2 18 0 25 -3 6 -5 1 -5 -13z"/>
<path d="M2454 3825 c0 -55 1 -76 3 -47 2 29 2 74 0 100 -2 26 -3 2 -3 -53z"/>
<path d="M2541 3864 c0 -11 3 -14 6 -6 3 7 2 16 -1 19 -3 4 -6 -2 -5 -13z"/>
<path d="M1167 3803 c-46 -62 -92 -133 -84 -133 2 0 23 28 46 63 22 34 53 77
67 95 15 17 24 32 21 32 -3 0 -25 -26 -50 -57z"/>
<path d="M1584 3815 c-4 -8 -10 -12 -15 -9 -5 3 -6 -2 -3 -11 7 -18 7 -18 23
13 6 12 9 22 6 22 -3 0 -8 -7 -11 -15z"/>
<path d="M2554 3680 c0 -80 2 -112 3 -72 2 39 2 105 0 145 -1 39 -3 7 -3 -73z"/>
<path d="M2931 3790 c0 -8 4 -22 9 -30 12 -18 12 -2 0 25 -6 13 -9 15 -9 5z"/>
<path d="M1550 3750 c-6 -11 -8 -20 -6 -20 3 0 10 9 16 20 6 11 8 20 6 20 -3
0 -10 -9 -16 -20z"/>
<path d="M1710 3730 c-6 -23 -9 -44 -7 -46 2 -3 9 14 15 38 6 23 9 44 7 46 -2
2 -9 -15 -15 -38z"/>
<path d="M1815 3730 c-4 -17 -5 -34 -2 -36 2 -3 7 10 11 27 8 42 0 50 -9 9z"/>
<path d="M2953 3728 c3 -9 11 -35 17 -57 6 -23 15 -41 19 -41 9 0 -25 100 -36
110 -4 3 -3 -3 0 -12z"/>
<path d="M3411 3714 c0 -11 3 -14 6 -6 3 7 2 16 -1 19 -3 4 -6 -2 -5 -13z"/>
<path d="M1524 3683 c-8 -21 -17 -54 -20 -73 -3 -31 -2 -30 10 10 7 25 19 57
25 73 16 41 4 32 -15 -10z"/>
<path d="M2428 3613 c-10 -54 -20 -111 -23 -128 -4 -22 -3 -25 3 -10 8 16 10
15 15 -14 10 -50 8 -201 -3 -176 -5 13 -6 0 -3 -33 5 -42 3 -52 -8 -49 -8 2
-11 2 -6 0 11 -7 8 -23 -4 -23 -6 0 -17 7 -25 15 -13 13 -12 16 6 27 22 14 28
30 7 23 -19 -8 -35 27 -29 64 l5 34 14 -24 c14 -23 13 -14 -3 25 -5 12 -4 17
3 13 5 -4 10 6 10 23 0 42 -11 29 -32 -35 -22 -73 -152 -330 -199 -395 -40
-55 -45 -69 -18 -49 15 11 15 11 4 -1 -7 -8 -17 -15 -21 -15 -4 0 -30 -24 -57
-54 -30 -32 -56 -52 -66 -50 -14 3 -11 12 18 54 19 28 39 49 45 47 6 -1 8 2 4
8 -3 5 2 22 13 38 35 50 82 156 138 312 35 98 85 310 83 358 -1 34 -6 20 -14
-41 -3 -26 -10 -45 -15 -42 -5 3 -14 -9 -19 -27 -5 -19 -10 -25 -10 -14 -1 11
-3 17 -6 14 -3 -3 -1 -26 6 -51 8 -34 8 -53 0 -74 -11 -28 -11 -27 -6 7 4 25
2 31 -5 20 -5 -8 -10 -10 -10 -5 -1 6 -7 -6 -14 -25 -13 -38 -11 -53 5 -30 8
12 9 11 7 -5 -2 -12 -10 -19 -21 -17 -13 2 -17 -4 -17 -27 0 -29 -19 -55 -21
-29 -2 17 -19 -95 -23 -152 -4 -64 -96 -237 -119 -223 -6 3 -7 1 -3 -6 4 -6
-6 -28 -23 -50 -25 -32 -35 -37 -60 -33 -26 4 -33 12 -55 67 -38 96 -73 229
-90 346 -20 131 -20 187 -1 309 16 106 17 116 10 108 -3 -2 -12 -49 -20 -104
-14 -91 -20 -416 -10 -542 2 -24 2 -42 0 -40 -2 2 -17 45 -34 97 -34 101 -52
233 -48 346 1 53 -3 77 -17 101 -15 24 -16 35 -8 50 10 17 12 16 13 -11 1 -35
28 96 27 135 0 14 -5 2 -10 -26 -6 -36 -19 -61 -44 -87 -18 -21 -34 -41 -34
-45 0 -4 -7 -18 -16 -31 -13 -18 -18 -20 -25 -10 -7 10 -8 9 -7 -6 3 -24 -18
-99 -38 -137 -8 -14 -14 -37 -15 -50 0 -22 -1 -22 -9 -3 -6 14 -9 15 -10 5 -1
-9 -5 -5 -11 8 -5 13 -6 28 -3 34 4 6 2 13 -3 17 -6 3 -7 15 -2 26 7 19 8 19
8 -3 1 -15 5 -21 13 -16 8 5 9 0 5 -15 -4 -18 -3 -20 9 -10 7 6 11 16 7 22 -3
5 -2 7 3 4 6 -3 11 10 11 31 l1 37 -12 -29 -11 -28 -18 38 c-13 27 -15 39 -7
44 8 5 9 16 5 30 -4 12 -1 42 5 67 11 36 10 46 0 56 -9 9 -11 9 -6 0 6 -11
-16 -121 -29 -143 -3 -6 -8 -27 -10 -46 -3 -35 -15 -61 -15 -33 0 8 -6 4 -16
-9 -8 -12 -20 -19 -26 -16 -7 4 -8 2 -4 -4 4 -7 2 -12 -5 -12 -7 0 -9 -3 -6
-6 4 -4 19 1 34 11 l28 18 -25 -27 c-14 -15 -31 -24 -40 -21 -9 3 -7 -1 5 -11
14 -11 16 -18 8 -21 -7 -3 -13 -13 -13 -23 0 -10 -5 -22 -11 -26 -7 -4 -9 0
-5 12 3 11 2 25 -3 33 -6 10 -11 -5 -15 -45 -4 -32 -13 -90 -21 -129 -28 -128
-38 -253 -25 -324 18 -106 20 -111 35 -111 8 0 15 -5 15 -11 0 -5 -4 -7 -10
-4 -16 10 -11 -12 15 -67 14 -28 23 -53 21 -55 -6 -6 -68 21 -114 51 -50 31
-67 34 -32 5 14 -11 20 -18 14 -15 -5 2 -47 6 -92 7 -46 1 -84 5 -87 8 -4 8
-19 198 -20 253 0 20 -3 34 -7 32 -14 -9 -28 65 -29 160 l-1 101 -18 -90 c-18
-90 -21 -277 -5 -320 4 -11 -3 -5 -15 13 -46 68 -73 304 -51 455 16 112 50
255 73 306 18 40 17 72 -1 42 -5 -7 -11 -12 -15 -11 -4 0 -14 -6 -22 -15 -9
-8 -13 -15 -11 -15 3 0 -11 -17 -30 -37 -46 -51 -86 -120 -77 -136 4 -6 3 -9
-1 -4 -9 7 -75 -88 -75 -108 0 -5 16 15 35 45 19 30 35 48 36 40 4 -60 -7
-469 -17 -617 -7 -107 3 -100 -141 -102 l-101 -2 5 48 c2 26 9 77 14 112 13
86 5 89 -12 4 -18 -93 -16 -285 3 -348 18 -59 57 -143 69 -151 14 -8 11 4 -13
46 -13 21 -20 41 -18 43 3 3 44 3 91 0 82 -5 86 -7 82 -27 -4 -17 -3 -18 6 -6
8 12 11 5 11 -27 0 -24 4 -43 8 -43 15 0 40 34 47 63 4 15 12 30 18 34 7 4 8
0 4 -11 -4 -10 -10 -30 -13 -44 -14 -59 -66 -151 -97 -171 -37 -24 -29 -28 12
-6 l28 14 2 -72 c1 -40 -1 -116 -5 -169 l-6 -97 -24 16 c-13 8 -31 13 -39 9
-10 -3 -20 5 -30 23 -8 16 -22 32 -32 35 -14 6 -13 2 4 -16 25 -26 35 -72 16
-73 -6 0 -15 -4 -19 -8 -14 -14 -33 -88 -27 -105 5 -11 3 -13 -8 -7 -8 4 -11
5 -7 1 3 -4 -7 -39 -22 -77 -16 -38 -27 -69 -25 -69 2 0 36 65 75 145 40 80
76 145 80 145 29 0 48 -25 92 -119 43 -93 90 -175 109 -191 3 -3 11 -15 18
-28 15 -28 -3 -37 -52 -28 -30 6 -38 14 -70 83 -20 43 -38 70 -41 62 -7 -18
-43 -128 -51 -154 -3 -11 1 -7 10 9 14 23 19 26 26 15 7 -9 8 -5 3 14 -4 18
-2 27 6 27 8 0 9 -16 5 -55 -7 -51 -5 -59 21 -98 29 -42 87 -123 102 -142 5
-6 30 -51 56 -100 75 -141 81 -174 81 -440 0 -225 4 -225 21 2 7 97 -14 272
-41 344 -8 20 -11 40 -7 44 4 5 2 5 -4 2 -14 -8 -27 20 -17 35 3 6 2 8 -4 5
-5 -3 -20 14 -33 38 -21 39 -22 47 -11 72 7 15 23 60 36 98 13 39 30 88 40
109 15 35 16 83 15 435 -1 218 -1 420 -1 449 l1 52 113 0 c61 0 117 4 124 8
18 11 30 50 37 124 7 59 10 67 24 59 9 -4 23 -6 31 -3 12 4 12 3 0 -11 -8 -8
-18 -12 -24 -9 -5 3 -4 -1 3 -10 14 -17 23 -98 11 -98 -15 0 -17 -33 -8 -132
8 -72 7 -161 -1 -298 -13 -214 -11 -200 -68 -420 -22 -85 -46 -187 -53 -227
-6 -40 -15 -71 -18 -69 -3 2 -7 -17 -7 -42 -1 -26 -6 -101 -12 -167 -6 -75 -6
-161 0 -230 5 -60 10 -123 11 -140 1 -16 5 -32 9 -35 4 -3 15 -35 24 -70 28
-110 93 -226 163 -288 53 -48 85 -62 139 -62 28 0 52 -3 51 -7 -2 -22 -39 -71
-69 -91 -70 -47 -179 -52 -245 -11 -16 10 -43 25 -60 32 -16 8 -48 33 -70 57
-22 23 -48 51 -57 61 -10 11 -18 28 -18 39 0 11 -4 20 -9 20 -5 0 -8 -20 -7
-44 0 -24 4 -42 7 -40 3 2 12 -9 20 -24 13 -27 88 -106 142 -150 l27 -22 509
0 510 0 4 28 4 27 2 -27 1 -28 254 0 253 0 6 127 c6 137 23 210 64 281 54 95
-12 61 -71 -36 -19 -31 -46 -68 -61 -82 -15 -14 -34 -42 -42 -62 -9 -22 -20
-35 -26 -31 -6 4 -8 0 -4 -10 3 -9 -8 -53 -26 -97 -22 -57 -33 -75 -35 -60 -2
13 2 26 8 30 8 5 10 18 6 33 -3 14 2 52 14 89 10 34 21 74 24 88 10 55 19 80
27 74 5 -3 9 3 9 12 0 10 8 26 18 37 12 15 13 18 2 12 -12 -7 -11 -3 2 15 10
14 27 42 38 63 12 22 25 35 32 31 6 -4 8 -3 5 3 -4 6 9 28 28 50 19 22 32 43
29 46 -3 2 22 5 55 4 35 0 66 5 75 12 9 8 16 9 16 3 0 -6 -6 -13 -12 -15 -9
-4 -7 -6 3 -6 18 -1 18 0 25 -103 4 -55 3 -78 -5 -78 -7 0 -9 -10 -5 -26 4
-15 3 -25 -2 -21 -5 3 -10 -18 -10 -46 -5 -169 -5 -262 1 -297 l7 -40 608 0
608 0 6 23 c9 33 7 44 -5 24 -14 -24 -29 -21 -28 6 0 21 1 21 10 2 13 -29 4
80 -11 130 -6 22 -14 58 -16 80 -2 22 -9 42 -14 43 -6 2 -8 19 -5 40 5 29 4
34 -5 22 -9 -12 -10 -5 -6 33 4 31 2 47 -5 47 -7 0 -9 10 -5 28 5 20 4 23 -4
12 -7 -12 -10 -7 -10 20 0 28 3 32 11 20 9 -12 10 -12 5 3 -3 10 -6 23 -6 28
0 6 -4 7 -10 4 -5 -3 -10 4 -10 15 0 17 4 21 18 16 16 -6 16 -5 0 7 -25 19
-40 66 -33 99 5 19 1 33 -10 44 -11 12 -14 25 -9 46 4 21 3 28 -5 24 -11 -7
-17 36 -13 99 2 24 0 27 -9 15 -8 -12 -10 -9 -6 12 2 15 1 29 -3 30 -4 2 -10
14 -14 28 -6 20 -5 22 4 10 10 -13 11 -12 6 3 -3 10 -6 26 -6 35 0 13 -2 14
-9 3 -9 -14 -20 26 -24 85 -1 22 -6 30 -16 26 -9 -3 -12 0 -9 9 3 8 -2 20 -9
28 -8 7 -12 20 -9 28 4 9 2 11 -6 7 -8 -5 -9 1 -4 20 4 16 2 34 -4 41 -6 7
-12 31 -14 52 -2 25 -7 37 -16 35 -11 -3 -11 0 -1 12 9 10 11 26 6 43 -4 16
-9 37 -10 48 -3 21 -47 198 -70 280 -8 28 -26 108 -40 180 -15 71 -29 134 -33
140 -7 11 -7 4 -26 295 l-14 215 6 -240 c8 -368 6 -639 -6 -631 -4 2 -6 -12
-4 -32 2 -21 -4 -55 -12 -77 l-16 -40 3 35 c2 28 -1 34 -15 32 -10 -2 -18 3
-18 10 0 9 -3 9 -12 0 -17 -17 -28 -15 -28 6 0 9 -16 -20 -34 -65 -19 -45 -44
-94 -55 -109 -12 -15 -21 -32 -21 -38 0 -14 -41 -64 -110 -137 -62 -64 -209
-149 -259 -149 -53 0 -80 68 -67 172 7 49 13 59 86 136 44 45 88 99 99 120 10
20 37 71 59 112 22 41 51 111 65 155 14 44 31 94 36 110 l11 30 -6 -35 c-4
-29 -3 -32 6 -17 12 18 20 141 23 329 1 61 5 94 12 91 5 -3 5 0 -2 7 -9 9 -9
19 -2 33 7 12 7 17 1 13 -5 -3 -12 5 -14 19 -6 27 1 25 45 -15 16 -14 37 -25
46 -25 9 -1 28 -8 41 -18 13 -9 29 -17 35 -17 5 0 -4 9 -21 19 -39 23 -78 77
-68 92 4 7 3 9 -4 5 -9 -5 -36 51 -56 119 -3 11 -4 3 -1 -18 2 -20 20 -69 40
-109 l36 -71 -38 31 c-64 51 -90 84 -118 152 -28 67 -34 108 -18 119 5 3 23
29 39 56 l29 50 6 -88 c3 -48 10 -91 14 -95 4 -4 5 9 2 28 -9 48 -10 170 -2
200 3 14 -4 4 -17 -22 -28 -53 -87 -146 -141 -221 -61 -86 -199 -228 -214
-223 -8 3 -12 2 -9 -2 6 -10 -81 -68 -148 -99 -76 -36 -220 -67 -259 -57 l-31
10 39 23 c22 13 45 24 52 24 7 0 11 3 10 7 -3 11 59 60 76 60 9 0 19 5 22 10
4 6 10 8 14 6 4 -3 17 4 29 14 12 11 24 20 28 20 13 0 102 105 97 113 -3 5
-16 7 -29 4 -13 -2 -21 0 -18 5 4 6 21 8 39 6 17 -2 37 1 42 7 12 13 24 47 20
55 -1 3 8 16 21 30 23 25 30 60 12 60 -6 0 -5 6 2 14 9 9 15 10 20 3 7 -11 24
59 19 82 -1 8 2 10 10 5 8 -4 10 -3 5 4 -4 6 -1 31 7 54 20 60 31 128 18 108
-6 -8 -11 -24 -11 -34 0 -34 -60 -181 -86 -211 -14 -16 -35 -45 -47 -65 -50
-82 -121 -154 -202 -209 -91 -61 -154 -86 -192 -76 -26 7 -23 10 53 46 50 24
98 56 123 81 77 81 127 144 140 179 7 19 18 48 26 64 22 52 34 106 56 265 18
127 20 183 16 310 -6 145 -23 287 -34 276 -3 -3 1 -38 8 -78 28 -156 16 -415
-31 -669 -11 -61 -69 -201 -80 -194 -4 2 -17 33 -30 67 -12 35 -32 86 -45 113
-22 47 -38 94 -98 280 -23 72 -58 219 -71 300 -2 17 -2 -1 0 -40 9 -121 11
-142 23 -163 6 -11 11 -29 10 -39 0 -10 -9 2 -19 27 -10 25 -19 38 -19 30 0
-18 37 -110 39 -95 1 12 29 -36 29 -50 0 -5 -6 -1 -14 9 -18 24 -19 16 -4 -18
7 -14 16 -23 20 -20 5 3 9 -2 9 -11 0 -8 4 -23 9 -33 5 -9 19 -43 31 -75 30
-78 14 -96 -29 -34 -17 25 -31 49 -31 54 0 4 -14 26 -30 47 -17 22 -30 45 -30
51 0 6 -11 35 -25 63 -14 29 -25 58 -25 66 0 7 -12 45 -26 82 -23 58 -27 85
-27 169 l0 100 -8 -70 c-19 -151 -30 -204 -63 -305 -33 -97 -115 -276 -101
-220 55 231 58 252 60 460 1 113 6 233 10 268 4 34 6 62 4 62 -2 0 -12 -44
-21 -97z m-762 -227 l4 -86 -57 1 -58 1 44 9 c66 13 73 20 16 15 l-50 -4 -1
31 c-1 18 1 24 3 15 2 -10 9 -18 14 -18 6 0 7 9 4 21 -7 21 11 79 25 79 4 0
11 12 14 27 7 24 9 25 23 10 11 -11 17 -40 19 -101z m600 68 c-4 -20 -10 -34
-12 -31 -3 3 -2 21 2 41 3 21 9 35 11 32 3 -3 2 -21 -1 -42z m-831 -183 c-3
-12 -11 -18 -17 -15 -6 4 -5 10 3 15 8 5 10 9 6 9 -5 0 -5 5 -2 11 11 16 18 3
10 -20z m235 -2 c0 -11 -7 -19 -16 -19 -14 0 -14 -2 1 -16 9 -9 13 -24 10 -35
-4 -10 -2 -19 3 -19 6 0 16 -24 22 -52 21 -89 62 -202 81 -227 30 -38 23 -41
-38 -20 -31 10 -58 17 -60 15 -2 -2 25 -14 61 -26 42 -14 70 -30 81 -46 16
-24 16 -25 -12 -18 -48 10 -238 75 -248 85 -5 5 -16 9 -25 9 -13 0 -13 -2 0
-11 12 -9 12 -10 -3 -5 -10 3 -21 6 -23 6 -3 0 -2 5 2 12 5 8 2 9 -10 5 -9 -4
-27 0 -40 8 -17 12 -30 13 -49 6 -44 -17 -63 -11 -59 19 2 15 -3 43 -12 64
-11 28 -13 43 -6 57 6 10 7 19 3 19 -4 0 -2 5 5 12 7 7 12 20 12 30 0 32 73
128 84 110 2 -4 4 -54 5 -111 1 -107 6 -145 20 -136 5 2 11 28 14 58 8 66 44
213 58 235 9 14 23 16 75 14 55 -3 64 -6 64 -23z m874 -11 c-4 -15 -3 -18 6
-13 9 5 11 4 6 -4 -4 -6 2 -27 14 -47 12 -19 20 -37 18 -39 -2 -3 -20 4 -39
14 -22 12 -33 25 -32 37 6 51 16 83 25 78 5 -3 6 -15 2 -26z m-1069 -25 c7 -7
14 -10 17 -8 2 2 2 -11 0 -30 -2 -19 -9 -35 -14 -35 -6 0 -7 11 -4 25 4 17 1
31 -9 41 -8 9 -15 23 -14 32 0 14 2 14 6 2 4 -8 12 -20 18 -27z m726 6 c-5
-13 -10 -19 -10 -12 -1 15 10 45 15 40 3 -2 0 -15 -5 -28z m159 4 c0 -9 -8
-22 -17 -29 -23 -17 -37 -18 -26 -1 4 6 8 14 9 17 7 37 34 47 34 13z m-180
-43 c0 -10 -4 -21 -9 -24 -4 -3 -8 8 -7 23 1 31 16 32 16 1z m-723 -12 c-3 -8
-6 -5 -6 6 -1 11 2 17 5 13 3 -3 4 -12 1 -19z m-110 -20 c-3 -8 -6 -5 -6 6 -1
11 2 17 5 13 3 -3 4 -12 1 -19z m1059 -22 c-3 -11 -6 -31 -6 -43 0 -13 -6 -23
-14 -23 -9 0 -12 12 -11 40 2 38 1 40 -26 40 -25 0 -29 -4 -30 -27 -1 -16 -3
-37 -3 -48 -1 -11 2 -28 7 -39 6 -13 6 -16 -2 -12 -6 4 -11 2 -11 -4 0 -6 -5
-8 -12 -4 -9 6 -9 9 0 12 22 7 12 23 -10 17 -22 -6 -22 -6 2 14 18 15 20 19 8
17 -10 -1 -20 -5 -24 -9 -17 -17 -22 7 -8 35 15 29 17 30 29 14 12 -16 14 -15
17 11 2 22 9 29 33 33 47 9 68 1 61 -24z m147 8 c26 -9 47 -20 47 -24 0 -5
-21 0 -47 12 -75 32 -74 38 0 12z m-768 -62 c-4 -15 -2 -21 5 -17 6 3 10 -3
10 -16 0 -21 63 -216 82 -252 9 -17 7 -18 -14 -12 -26 9 -39 25 -31 39 3 5 1
6 -4 3 -12 -8 -23 14 -29 58 -3 17 -11 57 -19 90 -15 66 -17 194 -2 153 4 -12
5 -33 2 -46z m373 38 c-14 -22 -24 -19 -15 5 4 8 11 15 17 15 6 0 6 -7 -2 -20z
m394 0 c52 -20 53 -22 103 -123 49 -100 120 -207 136 -207 12 0 11 14 -2 27
-8 8 -8 13 0 17 6 4 12 -1 13 -11 0 -10 2 -24 2 -31 1 -7 7 -16 13 -20 14 -9
47 -82 40 -88 -6 -7 -322 25 -377 37 -25 6 -81 12 -125 14 -135 7 -205 17
-205 28 0 7 12 43 27 81 18 48 23 71 15 74 -7 2 -12 8 -12 14 0 6 6 8 14 5 10
-4 22 9 37 44 13 27 24 49 26 49 3 0 21 -12 41 -27 20 -16 33 -22 28 -15 -5 8
0 12 13 12 16 0 21 6 21 26 0 19 -4 25 -15 20 -8 -3 -15 -1 -15 4 0 6 13 10
29 10 28 0 29 -2 21 -29 -4 -16 -6 -32 -3 -35 6 -6 -21 -119 -45 -184 -8 -23
-12 -45 -9 -48 3 -3 11 12 17 33 7 21 19 45 26 53 12 14 80 163 98 215 l7 20
16 -20 c11 -14 17 -16 20 -7 6 16 23 15 23 -2 0 -8 7 -17 16 -20 26 -10 26 -7
0 21 -14 15 -28 24 -32 20 -12 -12 -36 22 -29 43 8 24 3 24 67 0z m-1092 -55
c-6 -30 -8 -33 -9 -13 -1 25 8 62 14 56 2 -2 -1 -21 -5 -43z m770 -60 c-29
-60 -37 -52 -9 9 11 26 23 45 26 42 3 -3 -5 -26 -17 -51z m-895 -78 c-4 -15
-11 -25 -15 -22 -5 3 -11 -3 -13 -12 -3 -10 -5 -2 -6 17 0 23 2 30 8 21 6 -10
10 -10 16 -1 4 6 2 17 -4 23 -6 6 -11 16 -11 21 0 6 7 3 16 -5 10 -11 13 -24
9 -42z m825 -97 l-11 -25 6 25 c2 14 6 39 6 55 l2 30 4 -30 c2 -17 -1 -42 -7
-55z m-833 40 c-3 -11 -1 -20 4 -20 5 0 9 5 9 11 0 5 5 7 10 4 20 -12 9 -25
-20 -25 -32 0 -38 12 -17 35 17 20 20 18 14 -5z m93 -20 c0 -5 8 -10 17 -10 9
0 14 -3 10 -6 -9 -9 -77 5 -77 16 0 6 11 10 25 10 14 0 25 -4 25 -10z m686
-32 c-3 -18 -5 -39 -5 -46 -1 -12 -61 -14 -61 -2 0 7 60 80 66 80 2 0 2 -15 0
-32z m24 -28 c-5 -22 -8 -27 -9 -13 -1 21 9 56 14 51 2 -2 0 -19 -5 -38z
m-702 -69 c-3 -35 -2 -36 35 -39 l38 -3 -3 -42 c-3 -41 -2 -42 30 -45 30 -3
32 -6 32 -43 0 -39 0 -39 -40 -39 -40 0 -40 0 -40 40 0 37 -2 39 -35 46 -33 6
-35 9 -35 45 0 36 -2 39 -29 39 -37 0 -44 10 -36 53 6 31 8 32 46 29 40 -4 40
-5 37 -41z m187 -10 l-6 -38 41 -7 c40 -6 41 -7 38 -44 -3 -35 -1 -37 30 -40
30 -3 32 -6 32 -42 0 -46 -6 -51 -53 -43 -36 5 -37 6 -31 44 6 37 6 38 -30 44
-34 7 -36 9 -36 46 0 38 -1 39 -35 39 -33 0 -35 2 -35 33 0 43 5 47 53 47 l39
0 -7 -39z m506 -58 c5 -15 7 -44 4 -64 -5 -26 -2 -40 7 -46 16 -9 52 -93 44
-100 -7 -7 -105 65 -115 85 -8 16 -7 42 5 120 6 41 40 45 55 5z m-1123 -58 l1
-20 -9 20 c-5 11 -8 31 -8 45 l0 25 8 -25 c4 -14 8 -34 8 -45z m2075 45 c-3
-11 -9 -20 -15 -20 -5 0 -4 9 2 20 6 11 12 20 14 20 2 0 2 -9 -1 -20z m-721
-32 c-3 -36 -3 -37 35 -40 37 -3 38 -4 38 -43 0 -38 2 -40 33 -43 30 -3 32 -6
32 -41 0 -21 -2 -40 -4 -42 -3 -3 -24 -3 -46 -1 l-41 4 6 39 c6 37 6 38 -29
45 -34 6 -36 8 -36 45 0 38 -1 39 -35 39 -34 0 -35 1 -35 41 l0 40 43 -3 c42
-3 42 -3 39 -40z m174 32 c21 0 23 -4 21 -37 -2 -36 0 -38 31 -41 30 -3 32 -6
32 -42 0 -35 2 -38 35 -44 31 -6 35 -11 35 -36 0 -33 -27 -53 -63 -48 -19 3
-22 8 -19 46 l3 42 -35 0 c-35 0 -36 1 -36 40 0 33 -3 40 -19 40 -38 0 -51 11
-51 44 0 37 8 49 28 41 7 -3 24 -5 38 -5z m793 -174 c1 -43 -1 -47 -15 -36
-24 21 -38 51 -26 59 16 10 26 61 12 61 -6 0 -8 -4 -5 -10 3 -5 2 -17 -3 -27
-8 -13 -9 -10 -8 13 2 16 7 38 11 49 8 17 11 15 21 -20 7 -22 13 -62 13 -89z
m-292 82 c-3 -8 -6 -5 -6 6 -1 11 2 17 5 13 3 -3 4 -12 1 -19z m-975 -22 c26
-40 100 -92 143 -101 19 -4 25 -3 17 2 -7 5 -21 33 -32 61 l-20 52 24 0 c21 0
25 -6 28 -32 2 -25 8 -34 26 -36 19 -3 22 -9 22 -46 l0 -42 93 -12 c50 -7 108
-12 127 -12 19 0 62 -9 94 -19 53 -16 66 -17 114 -6 30 7 66 22 81 32 48 35
56 36 26 3 -29 -31 -100 -83 -171 -125 -19 -11 -34 -23 -34 -27 0 -10 116 -20
152 -13 18 4 62 15 97 26 35 11 66 18 68 16 14 -15 -134 -234 -156 -230 -6 2
-10 -1 -8 -6 2 -7 -47 -53 -104 -94 -15 -11 -18 -16 -6 -13 9 3 17 1 17 -4 0
-13 -16 -13 -42 1 -13 7 -18 7 -14 1 14 -23 -251 -127 -383 -152 -29 -5 -104
-10 -166 -10 -109 0 -112 1 -137 28 -14 15 -60 60 -102 100 -42 41 -73 78 -70
84 5 7 2 8 -6 3 -7 -4 -15 -4 -19 1 -3 5 -24 24 -46 42 -163 135 -218 225
-234 382 -6 52 -9 95 -8 96 1 0 45 -5 97 -12 52 -7 149 -18 215 -24 66 -7 123
-17 126 -22 9 -15 45 7 52 32 3 11 1 20 -4 20 -5 0 -9 9 -9 20 0 17 6 20 28
18 23 -3 27 1 30 25 3 24 8 27 38 27 27 0 38 -6 56 -34z m-659 5 c-4 -16 -8
-17 -18 -8 -15 14 -10 27 10 27 8 0 11 -7 8 -19z m1863 -36 c0 -18 -2 -32 -5
-30 -4 2 -5 -14 -3 -35 2 -21 -7 -110 -21 -197 -14 -87 -33 -210 -43 -273 -9
-63 -25 -132 -36 -152 -10 -21 -18 -43 -17 -50 0 -7 4 -4 9 7 6 13 9 15 9 5 0
-8 -6 -28 -14 -45 -13 -26 -14 -27 -9 -5 3 14 -6 4 -21 -23 -14 -27 -52 -87
-86 -134 -33 -47 -64 -95 -69 -108 -5 -13 -14 -26 -20 -30 -16 -10 -76 -133
-94 -194 -9 -30 -16 -72 -16 -93 0 -28 -4 -38 -15 -38 -23 0 -127 108 -161
165 -33 58 -37 74 -21 94 10 12 9 13 -2 6 -10 -5 -12 -4 -7 4 4 7 10 47 12 89
6 97 39 249 70 326 13 33 24 63 24 68 0 19 -18 -3 -25 -29 -3 -15 -15 -33 -26
-41 -10 -7 -19 -20 -19 -28 0 -8 -4 -14 -9 -14 -10 0 -81 -144 -111 -227 -17
-48 -21 -78 -18 -131 l3 -68 -38 59 -38 59 16 56 c9 32 32 85 51 120 36 66 40
77 25 67 -5 -3 -12 -1 -16 4 -3 6 3 8 14 6 15 -3 28 11 57 60 21 35 42 61 47
58 6 -3 7 -1 3 6 -5 7 7 31 28 58 20 26 36 50 36 55 0 10 -13 10 -26 1 -5 -5
2 2 15 14 14 12 27 21 30 21 18 -2 33 3 28 8 -3 3 4 16 15 28 11 11 41 48 66
81 25 33 43 53 39 43 -10 -28 4 -28 47 0 81 53 131 95 128 108 -2 8 2 14 8 14
6 0 8 -4 5 -10 -14 -22 13 -8 38 20 30 33 35 55 12 46 -8 -3 -15 -2 -15 3 0
13 26 32 33 24 4 -3 7 -1 7 5 0 6 -9 16 -20 22 -16 9 -20 8 -20 -5 0 -8 -5
-15 -11 -15 -15 0 13 43 32 48 11 3 11 1 -1 -7 -13 -10 -13 -11 0 -11 8 0 21
-9 28 -21 l13 -21 25 23 c14 13 22 29 20 35 -3 7 2 15 10 18 8 3 14 13 14 21
0 9 4 14 8 11 5 -3 9 1 9 9 0 8 -5 11 -10 8 -7 -4 -7 1 -2 13 4 10 8 26 9 34
2 14 14 40 19 40 1 0 2 -16 3 -35z m-306 -30 c-13 -14 -26 -23 -28 -20 -4 4
38 44 47 45 3 0 -6 -11 -19 -25z m266 0 c-9 -14 -12 -25 -7 -25 12 0 2 -32
-13 -42 -5 -3 -11 -14 -12 -23 -3 -20 -14 -33 -14 -17 0 7 -5 12 -11 12 -6 0
-8 -8 -5 -17 5 -15 4 -15 -9 1 -10 13 -11 23 -5 31 5 7 7 15 3 19 -4 4 1 4 11
0 14 -5 17 -4 12 5 -4 6 4 26 21 46 33 39 53 46 29 10z m-1822 -21 c3 -8 2
-12 -4 -9 -6 3 -10 10 -10 16 0 14 7 11 14 -7z m1899 -28 c4 4 7 3 7 -3 0 -6
-6 -16 -14 -22 -18 -15 -27 -49 -15 -57 5 -3 9 -2 8 3 -5 26 2 42 16 37 10 -4
15 0 15 12 0 9 3 15 6 11 4 -3 4 -21 0 -40 -4 -23 -12 -34 -24 -34 -30 -1 -37
14 -33 73 3 52 4 56 15 36 7 -13 15 -19 19 -16z m-1873 -16 c0 -5 -2 -10 -4
-10 -3 0 -8 5 -11 10 -3 6 -1 10 4 10 6 0 11 -4 11 -10z m1434 -22 c-3 -4 -9
-8 -15 -8 -5 0 -9 4 -9 8 0 5 7 9 15 9 8 0 12 -4 9 -9z m-1437 -55 c-3 -10 -5
-4 -5 12 0 17 2 24 5 18 2 -7 2 -21 0 -30z m-20 -20 c-3 -10 -5 -4 -5 12 0 17
2 24 5 18 2 -7 2 -21 0 -30z m1643 -3 c0 -5 -2 -10 -4 -10 -3 0 -8 5 -11 10
-3 6 -1 10 4 10 6 0 11 -4 11 -10z m261 -34 c-6 -7 -7 -17 -3 -21 4 -5 2 -5
-5 -2 -6 4 -13 2 -15 -5 -2 -6 -12 -12 -21 -14 -9 -1 -15 2 -11 7 3 5 9 7 14
4 4 -3 10 1 13 8 8 21 5 32 -6 29 -7 -2 -3 5 8 16 17 16 21 17 28 5 5 -8 4
-20 -2 -27z m-286 16 c-3 -3 -11 0 -18 7 -9 10 -8 11 6 5 10 -3 15 -9 12 -12z
m65 14 c0 -2 -7 -9 -15 -16 -12 -10 -15 -10 -15 4 0 9 7 16 15 16 8 0 15 -2
15 -4z m-1703 -28 c-3 -8 -6 -5 -6 6 -1 11 2 17 5 13 3 -3 4 -12 1 -19z m68
-27 c5 -16 4 -21 -4 -17 -6 4 -11 17 -12 29 0 21 -1 21 -9 2 -10 -23 -13 -5
-4 20 8 19 16 10 29 -34z m1528 28 c-12 -4 -24 -12 -28 -18 -8 -14 -25 -14
-25 0 0 5 4 8 8 5 5 -3 16 4 25 15 10 11 23 17 29 13 7 -5 4 -10 -9 -15z m-7
-35 c-9 -8 -16 -21 -16 -27 0 -7 4 -6 10 3 5 8 12 11 16 7 9 -9 2 -17 -22 -21
-11 -3 -27 -7 -36 -11 -19 -8 -25 9 -8 20 6 4 7 11 4 17 -4 6 -3 8 3 5 6 -4
19 0 29 8 26 19 39 19 20 -1z m-1562 -53 c-4 -17 -9 -30 -11 -27 -3 2 -2 19 2
36 4 17 9 30 11 27 2 -2 1 -18 -2 -36z m87 -23 c17 -32 -9 -29 -32 4 -13 17
-17 28 -9 23 10 -6 12 -4 7 11 -7 18 -6 18 9 -1 8 -11 20 -28 25 -37z m40 -55
c12 -16 12 -17 -1 -7 -8 6 -22 14 -30 17 -13 5 -12 6 1 6 9 1 23 -7 30 -16z
m166 -218 c0 -8 -4 -12 -9 -9 -5 3 -6 10 -3 15 9 13 12 11 12 -6z m944 -18
c-1 -12 -15 -9 -19 4 -3 6 1 10 8 8 6 -3 11 -8 11 -12z m-79 -14 c-6 -2 -9
-10 -6 -15 4 -7 2 -8 -5 -4 -13 9 -5 26 12 25 9 0 8 -2 -1 -6z m-46 -49 c18
-14 18 -14 -6 -3 -31 14 -36 19 -24 19 6 0 19 -7 30 -16z m-206 -54 c-8 -5
-22 -9 -30 -9 -10 0 -8 3 5 9 27 12 43 12 25 0z m-652 -25 c-3 -3 -9 2 -12 12
-6 14 -5 15 5 6 7 -7 10 -15 7 -18z m339 -5 c20 0 21 -4 18 -47 -1 -27 4 -68
12 -91 8 -24 12 -50 9 -58 -3 -9 -1 -12 4 -9 6 3 10 1 10 -6 0 -7 12 -26 28
-42 15 -17 20 -26 12 -22 -13 8 -13 7 -1 -8 7 -9 10 -17 7 -17 -4 0 -2 -8 3
-18 8 -14 5 -18 -11 -19 -11 -1 -29 -8 -40 -15 -19 -13 -20 -23 -19 -116 2
-82 -2 -110 -17 -145 -23 -52 -37 -63 -57 -47 -8 7 -15 9 -15 6 0 -4 -10 -2
-22 4 -20 10 -21 10 -6 -3 12 -9 15 -21 10 -38 -6 -23 -6 -23 -12 6 -4 18 -11
29 -20 27 -10 -2 -11 1 -3 10 5 7 20 42 32 78 23 68 33 93 53 135 9 20 9 36 0
69 -6 23 -9 53 -6 67 5 19 3 21 -5 9 -14 -20 -14 -4 0 22 7 13 7 18 1 14 -13
-8 -28 57 -17 73 3 6 2 11 -4 11 -5 0 -12 -6 -14 -12 -6 -16 -9 4 -11 97 -1
78 7 99 38 91 12 -3 31 -6 43 -6z m655 -2 c-5 -7 -12 -22 -15 -33 -5 -20 -5
-20 -6 1 0 11 4 25 11 32 16 16 23 15 10 0z m-1972 -49 c-11 -21 -23 -39 -25
-39 -3 0 1 13 10 30 8 16 15 36 15 45 0 9 4 13 10 10 6 -4 2 -21 -10 -46z
m1357 9 c-3 -7 -5 -2 -5 12 0 14 2 19 5 13 2 -7 2 -19 0 -25z m130 10 c-3 -8
-6 -5 -6 6 -1 11 2 17 5 13 3 -3 4 -12 1 -19z m427 -124 c5 -14 4 -15 -9 -4
-12 10 -15 10 -15 0 0 -8 -3 -11 -6 -7 -7 7 4 27 16 27 4 0 11 -7 14 -16z
m1103 -83 c0 -11 -5 -18 -9 -15 -4 3 -5 11 -1 19 7 21 12 19 10 -4z m-2886
-24 c-10 -9 -11 -8 -5 6 3 10 9 15 12 12 3 -3 0 -11 -7 -18z m1356 -9 c-3 -7
-5 -2 -5 12 0 14 2 19 5 13 2 -7 2 -19 0 -25z m1651 -30 c-2 -7 2 -12 9 -13 6
0 14 -3 18 -7 9 -9 -17 -5 -33 5 -7 5 -10 13 -7 18 9 13 15 11 13 -3z m-1690
-23 c-3 -3 -9 2 -12 12 -6 14 -5 15 5 6 7 -7 10 -15 7 -18z m40 -46 c-3 -20
-5 -19 -9 9 -3 20 -2 29 4 23 5 -5 7 -19 5 -32z m429 -39 c-1 -39 2 -70 6 -70
5 0 7 -8 5 -17 -1 -10 1 -23 5 -30 4 -6 3 -15 -3 -18 -6 -4 -9 -1 -8 7 2 7 -5
12 -15 12 -10 -1 -16 1 -13 4 3 3 0 12 -7 20 -6 8 -17 33 -22 56 -10 40 -9 42
20 59 27 16 28 17 5 12 l-25 -6 24 20 c13 12 25 21 27 21 1 0 2 -32 1 -70z
m1273 39 c0 -6 -4 -7 -10 -4 -5 3 -10 11 -10 16 0 6 5 7 10 4 6 -3 10 -11 10
-16z m-179 -26 c-12 -20 -14 -14 -5 12 4 9 9 14 11 11 3 -2 0 -13 -6 -23z
m200 3 c-12 -15 -54 -18 -45 -4 3 4 11 5 18 2 8 -3 17 -1 21 5 3 6 9 11 12 11
3 0 0 -6 -6 -14z m-1636 -81 c41 -40 80 -57 131 -58 39 -1 58 3 65 13 18 29
30 -11 24 -78 -12 -136 -82 -391 -99 -364 -5 9 -14 8 -31 -4 -21 -14 -24 -14
-37 1 -7 9 -21 24 -31 34 -9 10 -35 41 -56 70 -60 80 -73 201 -45 423 l6 46
32 -36 c17 -21 36 -41 41 -47z m-106 -175 c1 -41 6 -92 12 -114 6 -21 12 -46
14 -55 2 -9 6 -29 9 -46 5 -23 4 -26 -3 -10 -7 14 -10 15 -10 5 -1 -13 -3 -13
-10 -1 -5 8 -7 21 -4 30 3 12 2 12 -7 -1 -8 -13 -8 -23 1 -39 8 -16 8 -24 -2
-33 -9 -8 -10 -8 -5 1 4 7 2 21 -3 30 -6 10 -11 14 -11 8 -1 -5 -3 -18 -5 -27
-2 -9 6 -24 16 -34 18 -16 19 -16 19 1 0 10 3 16 6 12 4 -3 4 -14 0 -23 -6
-15 -13 -12 -46 21 -22 21 -37 42 -35 45 3 4 -4 10 -14 13 -19 5 -23 29 -6 44
4 4 5 -2 2 -15 -4 -17 -2 -21 6 -14 18 15 40 -11 24 -27 -9 -9 -8 -11 6 -6 16
7 20 16 15 33 -2 4 -7 6 -11 4 -5 -1 -6 2 -2 8 5 8 11 8 20 0 11 -9 14 -7 12
9 0 11 -4 18 -8 15 -4 -2 -10 4 -14 15 -3 11 -12 22 -20 25 -17 6 -19 27 -5
70 5 17 14 52 21 78 6 26 16 45 21 42 5 -3 6 7 3 23 -4 23 -4 24 4 8 5 -11 10
-54 10 -95z m-54 20 c-11 -66 -27 -104 -36 -89 -6 9 -9 10 -9 2 0 -6 5 -15 10
-18 6 -3 10 -15 10 -26 0 -12 10 -29 23 -39 16 -14 19 -21 11 -30 -9 -9 -15
-7 -26 9 -8 12 -18 18 -23 13 -4 -4 -6 3 -3 15 3 12 1 24 -4 25 -5 2 -10 20
-11 41 -1 36 -1 37 -14 15 l-14 -23 7 24 c3 14 1 26 -5 31 -16 9 -2 42 15 36
9 -3 11 0 7 11 -5 12 -3 14 7 8 10 -6 11 -2 6 21 -7 28 -7 28 9 9 16 -20 16
-20 12 2 -4 19 -3 20 15 10 15 -10 18 -19 13 -47z m462 13 c15 -10 22 -22 18
-31 -4 -12 -3 -13 10 -2 13 11 14 10 9 -5 -6 -13 -4 -16 6 -10 9 6 10 4 3 -10
-5 -9 -8 -45 -5 -80 2 -36 -1 -72 -7 -84 -7 -12 -8 -21 -4 -20 18 3 23 -2 14
-13 -44 -57 -95 -107 -104 -101 -6 4 -7 1 -3 -6 6 -8 2 -11 -10 -9 -11 2 -19
-3 -19 -12 0 -14 -4 -16 -42 -11 -16 2 -16 3 2 11 12 5 14 9 6 9 -8 1 -23 -6
-33 -16 -18 -16 -26 -6 -9 13 4 5 14 30 21 56 7 28 17 45 23 41 6 -3 7 -1 3 6
-4 6 -3 26 2 44 6 17 18 68 27 112 33 158 36 166 53 149 8 -9 26 -22 39 -31z
m-597 -59 c11 -12 11 -15 -1 -12 -8 2 -14 -5 -14 -14 0 -9 -3 -19 -6 -23 -4
-3 -5 5 -4 17 1 13 3 29 4 36 1 16 6 15 21 -4z m665 -13 c3 -5 2 -12 -3 -15
-5 -3 -9 1 -9 9 0 17 3 19 12 6z m55 -16 c0 -7 -4 -15 -9 -17 -5 -1 -3 -14 5
-28 12 -21 14 -21 9 -4 -9 35 16 47 59 29 30 -13 36 -20 36 -45 0 -16 -5 -32
-10 -35 -6 -4 -8 -11 -4 -16 3 -5 10 -6 16 -3 7 4 8 2 4 -5 -5 -8 -12 -9 -19
-3 -7 5 -20 8 -30 7 -9 -2 -15 1 -11 6 5 8 -9 13 -28 10 -4 0 -4 7 -1 16 4 10
2 14 -4 10 -5 -3 -18 10 -27 31 -12 25 -14 38 -6 40 7 3 4 9 -7 18 -17 12 -16
13 5 7 12 -3 22 -11 22 -18z m-643 -117 c-3 -8 -6 -5 -6 6 -1 11 2 17 5 13 3
-3 4 -12 1 -19z m76 -116 c15 -16 15 -19 2 -19 -8 0 -13 3 -10 5 3 3 0 11 -6
19 -17 20 -5 16 14 -5z m423 -47 c-1 -8 -5 -17 -8 -21 -5 -4 -4 16 1 34 3 9 9
-1 7 -13z m-108 -43 c-10 -2 -18 -8 -18 -13 0 -6 -4 -8 -10 -4 -18 11 1 33 23
27 18 -5 19 -7 5 -10z m-345 -65 c-5 -9 -2 -8 9 0 15 13 28 8 28 -9 0 -5 -4
-6 -10 -3 -15 9 -12 -1 4 -14 11 -9 16 -9 22 0 5 8 3 9 -6 4 -9 -5 -11 -4 -6
4 12 19 27 2 16 -18 -5 -10 -6 -21 -2 -25 3 -4 -2 -4 -12 0 -14 5 -17 4 -12
-4 6 -11 -5 -17 -26 -13 -5 0 -8 -3 -8 -8 0 -14 -38 -20 -43 -6 -14 34 -18
126 -8 139 10 12 16 10 37 -11 14 -13 21 -29 17 -36z m561 -4 c-3 -27 -10 -61
-15 -77 -5 -15 -7 -32 -4 -36 3 -4 -1 -10 -8 -13 -14 -5 -80 22 -85 35 -2 5
-9 5 -14 2 -7 -5 -8 -2 -3 6 6 10 3 12 -13 8 -12 -4 -22 -5 -22 -4 0 8 32 66
36 66 3 0 2 -6 -1 -12 -4 -7 2 -3 12 8 11 12 34 29 52 38 27 14 35 15 49 4 13
-11 15 -11 9 5 -3 9 -2 17 3 17 6 0 7 -20 4 -47z m1541 -531 c-5 -5 -25 69
-24 88 0 8 7 -7 14 -35 8 -27 12 -51 10 -53z"/>
<path d="M1635 3470 c-3 -5 -1 -10 4 -10 6 0 11 5 11 10 0 6 -2 10 -4 10 -3 0
-8 -4 -11 -10z"/>
<path d="M1613 3423 c-3 -10 -8 -22 -10 -28 -3 -5 3 -1 11 9 16 20 21 36 11
36 -3 0 -8 -8 -12 -17z"/>
<path d="M1624 3231 c20 -22 26 -25 26 -13 0 4 -10 13 -22 21 -23 14 -23 14
-4 -8z"/>
<path d="M1605 2915 c17 -8 37 -14 45 -14 8 0 -1 7 -20 14 -46 18 -64 17 -25
0z"/>
<path d="M2335 3240 c-3 -5 -1 -10 4 -10 6 0 11 5 11 10 0 6 -2 10 -4 10 -3 0
-8 -4 -11 -10z"/>
<path d="M2272 3103 c-11 -26 -11 -27 3 -9 10 13 15 15 15 6 0 -7 3 -11 6 -7
3 3 2 13 -3 22 -8 13 -11 12 -21 -12z"/>
<path d="M2466 3055 c-9 -25 -6 -43 4 -20 5 11 9 14 9 8 1 -7 11 -13 24 -13
21 1 21 1 2 12 -11 6 -23 15 -26 20 -3 6 -9 2 -13 -7z"/>
<path d="M2348 2993 c7 -3 16 -2 19 1 4 3 -2 6 -13 5 -11 0 -14 -3 -6 -6z"/>
<path d="M2358 2753 c6 -2 18 -2 25 0 6 3 1 5 -13 5 -14 0 -19 -2 -12 -5z"/>
<path d="M3301 2484 c0 -11 3 -14 6 -6 3 7 2 16 -1 19 -3 4 -6 -2 -5 -13z"/>
<path d="M1850 2132 c0 -3 8 -14 17 -25 10 -10 18 -24 18 -30 3 -42 20 -113
29 -119 36 -24 70 18 47 59 -11 22 -111 125 -111 115z m94 -160 c3 -5 -1 -9
-9 -9 -8 0 -12 4 -9 9 3 4 7 8 9 8 2 0 6 -4 9 -8z"/>
<path d="M3178 2443 c0 -5 -2 -13 -2 -20 -1 -7 -9 -18 -19 -26 -17 -12 -17
-13 2 -13 11 0 18 2 16 5 -3 2 2 13 12 23 10 12 12 18 4 18 -7 0 -9 5 -6 10 3
6 4 10 1 10 -3 0 -7 -3 -8 -7z"/>
<path d="M2920 2215 c-11 -13 -10 -14 4 -9 9 3 16 10 16 15 0 13 -6 11 -20 -6z"/>
<path d="M1470 2170 c6 -11 13 -20 16 -20 2 0 0 9 -6 20 -6 11 -13 20 -16 20
-2 0 0 -9 6 -20z"/>
<path d="M1925 1719 c-11 -17 1 -21 15 -4 8 9 8 15 2 15 -6 0 -14 -5 -17 -11z"/>
<path d="M2534 808 l-19 -23 25 20 c14 11 27 21 29 22 2 2 0 3 -6 3 -5 0 -18
-10 -29 -22z"/>
<path d="M2700 1002 c0 -5 7 -9 15 -9 8 0 12 4 9 9 -3 4 -9 8 -15 8 -5 0 -9
-4 -9 -8z"/>
<path d="M2506 581 c-3 -5 3 -11 15 -14 16 -4 18 -3 8 9 -13 16 -16 17 -23 5z"/>
<path d="M3421 3685 c1 -19 18 -51 18 -35 0 8 -4 22 -9 30 -5 8 -9 11 -9 5z"/>
<path d="M1802 3660 c0 -14 2 -19 5 -12 2 6 2 18 0 25 -3 6 -5 1 -5 -13z"/>
<path d="M1466 3635 c-9 -26 -7 -32 5 -12 6 10 9 21 6 23 -2 3 -7 -2 -11 -11z"/>
<path d="M2638 3643 c-2 -5 0 -55 3 -113 l6 -105 0 113 c1 104 -1 124 -9 105z"/>
<path d="M1051 3619 c-5 -13 -21 -35 -35 -48 -14 -14 -26 -29 -26 -35 0 -6 5
-3 11 7 5 9 15 17 20 17 6 0 7 -6 3 -12 -4 -7 0 -6 8 2 17 17 41 80 33 88 -2
3 -9 -6 -14 -19z"/>
<path d="M2991 3604 c0 -11 3 -14 6 -6 3 7 2 16 -1 19 -3 4 -6 -2 -5 -13z"/>
<path d="M2260 3583 c-6 -16 -15 -36 -20 -45 -12 -22 -13 -31 -1 -24 10 7 43
96 35 96 -2 0 -9 -12 -14 -27z"/>
<path d="M3861 3594 c0 -11 3 -14 6 -6 3 7 2 16 -1 19 -3 4 -6 -2 -5 -13z"/>
<path d="M1456 3575 c-9 -26 -7 -32 5 -12 6 10 9 21 6 23 -2 3 -7 -2 -11 -11z"/>
<path d="M2613 3520 c0 -25 2 -35 4 -22 2 12 2 32 0 45 -2 12 -4 2 -4 -23z"/>
<path d="M3462 3515 c0 -16 2 -22 5 -12 2 9 2 23 0 30 -3 6 -5 -1 -5 -18z"/>
<path d="M1421 3523 c-1 -6 -4 -20 -7 -30 -5 -17 -5 -17 6 0 6 10 9 23 6 30
-3 9 -5 9 -5 0z"/>
<path d="M3882 3500 c0 -14 2 -19 5 -12 2 6 2 18 0 25 -3 6 -5 1 -5 -13z"/>
<path d="M1066 3447 c-23 -61 -19 -72 5 -13 11 27 18 50 16 53 -2 2 -12 -16
-21 -40z"/>
<path d="M3472 3460 c0 -14 2 -19 5 -12 2 6 2 18 0 25 -3 6 -5 1 -5 -13z"/>
<path d="M1530 3455 c0 -5 5 -17 10 -25 5 -8 10 -10 10 -5 0 6 -5 17 -10 25
-5 8 -10 11 -10 5z"/>
<path d="M2391 3434 c0 -11 3 -14 6 -6 3 7 2 16 -1 19 -3 4 -6 -2 -5 -13z"/>
<path d="M2411 3434 c0 -11 3 -14 6 -6 3 7 2 16 -1 19 -3 4 -6 -2 -5 -13z"/>
<path d="M1394 3418 c3 -10 1 -18 -4 -18 -6 0 -10 -5 -10 -12 0 -9 3 -9 11 -1
6 6 18 9 25 6 8 -3 14 0 14 7 0 6 -4 9 -9 5 -6 -3 -15 3 -21 12 -11 17 -11 17
-6 1z"/>
<path d="M1491 3405 c1 -19 18 -51 18 -35 0 8 -4 22 -9 30 -5 8 -9 11 -9 5z"/>
<path d="M2187 3386 c-5 -15 -6 -31 -3 -34 8 -8 18 25 14 45 -3 13 -6 10 -11
-11z"/>
<path d="M3483 3370 c0 -25 2 -35 4 -22 2 12 2 32 0 45 -2 12 -4 2 -4 -23z"/>
<path d="M2632 3375 c0 -16 2 -22 5 -12 2 9 2 23 0 30 -3 6 -5 -1 -5 -18z"/>
<path d="M2611 3374 c0 -11 3 -14 6 -6 3 7 2 16 -1 19 -3 4 -6 -2 -5 -13z"/>
<path d="M1396 3365 c-9 -26 -7 -32 5 -12 6 10 9 21 6 23 -2 3 -7 -2 -11 -11z"/>
<path d="M1036 3343 c-17 -79 -36 -191 -35 -213 1 -14 5 0 10 30 5 30 16 88
25 128 10 40 15 75 12 78 -3 2 -8 -8 -12 -23z"/>
<path d="M1366 3355 c-9 -26 -7 -32 5 -12 6 10 9 21 6 23 -2 3 -7 -2 -11 -11z"/>
<path d="M2165 3310 c-4 -17 -5 -34 -2 -36 2 -3 7 10 11 27 8 42 0 50 -9 9z"/>
<path d="M2621 3324 c0 -11 3 -14 6 -6 3 7 2 16 -1 19 -3 4 -6 -2 -5 -13z"/>
<path d="M3912 3300 c0 -14 2 -19 5 -12 2 6 2 18 0 25 -3 6 -5 1 -5 -13z"/>
<path d="M2631 3285 c0 -11 4 -29 9 -40 l9 -20 0 20 c0 11 -4 29 -9 40 l-9 20
0 -20z"/>
<path d="M3492 3270 c0 -19 2 -27 5 -17 2 9 2 25 0 35 -3 9 -5 1 -5 -18z"/>
<path d="M3763 3235 c-3 -9 -3 -18 -1 -21 3 -3 8 4 11 16 6 23 -1 27 -10 5z"/>
<path d="M3931 3174 c0 -11 3 -14 6 -6 3 7 2 16 -1 19 -3 4 -6 -2 -5 -13z"/>
<path d="M682 3054 c-18 -35 -32 -68 -32 -72 1 -4 17 24 36 62 19 37 34 70 32
72 -2 2 -18 -26 -36 -62z"/>
<path d="M3731 3074 c0 -11 3 -14 6 -6 3 7 2 16 -1 19 -3 4 -6 -2 -5 -13z"/>
<path d="M3721 3014 c0 -11 3 -14 6 -6 3 7 2 16 -1 19 -3 4 -6 -2 -5 -13z"/>
<path d="M3466 2954 c-4 -14 -5 -28 -3 -31 3 -2 8 8 11 23 4 14 5 28 3 31 -3
2 -8 -8 -11 -23z"/>
<path d="M3722 2945 c0 -16 2 -22 5 -12 2 9 2 23 0 30 -3 6 -5 -1 -5 -18z"/>
<path d="M633 2943 c-3 -10 -8 -22 -11 -27 -3 -5 0 -6 5 -3 11 7 25 47 17 47
-3 0 -7 -8 -11 -17z"/>
<path d="M605 2870 c-4 -17 -5 -34 -2 -36 2 -3 7 10 11 27 8 42 0 50 -9 9z"/>
<path d="M3714 2790 c0 -58 1 -81 3 -52 2 28 2 76 0 105 -2 28 -3 5 -3 -53z"/>
<path d="M3962 2850 c0 -19 2 -27 5 -17 2 9 2 25 0 35 -3 9 -5 1 -5 -18z"/>
<path d="M591 2804 c0 -11 3 -14 6 -6 3 7 2 16 -1 19 -3 4 -6 -2 -5 -13z"/>
<path d="M3972 2750 c0 -19 2 -27 5 -17 2 9 2 25 0 35 -3 9 -5 1 -5 -18z"/>
<path d="M3983 2625 c0 -33 2 -45 4 -27 2 18 2 45 0 60 -2 15 -4 0 -4 -33z"/>
<path d="M1150 2631 c5 -11 15 -23 21 -27 6 -3 3 5 -6 20 -20 30 -30 35 -15 7z"/>
<path d="M122 2543 l-122 -4 0 -115 c0 -115 0 -116 23 -111 12 3 51 2 87 -2
36 -5 66 -5 68 -2 1 4 76 5 167 4 120 -3 165 0 165 8 0 8 5 7 17 -2 15 -13 16
-10 9 36 -3 28 -9 80 -13 117 -7 87 24 81 -401 71z"/>
<path d="M3996 2507 c3 -23 12 -78 19 -122 8 -44 16 -91 18 -105 4 -24 4 -24
6 3 1 29 2 29 126 32 17 0 35 3 41 7 6 4 14 4 18 1 3 -4 90 -8 191 -8 l185 -2
0 113 c0 111 -1 114 -22 114 -13 1 -150 3 -306 5 l-282 5 6 -43z"/>
<path d="M3933 2425 c0 -22 2 -30 4 -17 2 12 2 30 0 40 -3 9 -5 -1 -4 -23z"/>
<path d="M3942 2350 c0 -14 2 -19 5 -12 2 6 2 18 0 25 -3 6 -5 1 -5 -13z"/>
<path d="M3511 2234 c0 -11 3 -14 6 -6 3 7 2 16 -1 19 -3 4 -6 -2 -5 -13z"/>
<path d="M581 2184 c0 -11 3 -14 6 -6 3 7 2 16 -1 19 -3 4 -6 -2 -5 -13z"/>
<path d="M669 2180 c13 -11 35 -19 50 -19 l26 2 -27 4 c-14 2 -32 11 -38 19
-7 8 -18 14 -24 14 -6 -1 0 -10 13 -20z"/>
<path d="M4052 2140 c0 -14 2 -19 5 -12 2 6 2 18 0 25 -3 6 -5 1 -5 -13z"/>
<path d="M600 2126 c0 -22 46 -76 65 -75 18 0 18 1 -2 9 -13 5 -32 24 -43 42
-11 18 -20 29 -20 24z"/>
<path d="M4062 2095 c0 -11 4 -31 8 -45 6 -20 8 -21 8 -5 0 11 -4 31 -8 45 -6
20 -8 21 -8 5z"/>
<path d="M3442 2070 c0 -19 2 -27 5 -17 2 9 2 25 0 35 -3 9 -5 1 -5 -18z"/>
<path d="M3962 1950 c0 -19 2 -27 5 -17 2 9 2 25 0 35 -3 9 -5 1 -5 -18z"/>
<path d="M4096 1962 c-3 -5 1 -9 9 -9 8 0 12 4 9 9 -3 4 -7 8 -9 8 -2 0 -6 -4
-9 -8z"/>
<path d="M3661 1944 c0 -11 3 -14 6 -6 3 7 2 16 -1 19 -3 4 -6 -2 -5 -13z"/>
<path d="M4110 1879 c0 -13 5 -31 10 -39 7 -11 8 -5 4 20 -8 43 -14 51 -14 19z"/>
<path d="M473 1850 c20 -4 39 -9 40 -11 43 -54 55 -76 48 -88 -6 -9 -11 -10
-15 -2 -17 27 -44 3 -50 -44 -1 -5 -5 -15 -8 -21 -8 -12 -33 -133 -43 -202 -4
-30 -3 -42 4 -37 6 3 11 11 11 16 0 6 9 29 20 51 11 23 20 47 20 53 0 7 7 26
15 43 34 67 83 203 70 192 -12 -10 -21 -5 -48 24 -27 28 -42 36 -68 35 l-34
-1 38 -8z m51 -175 c-4 -8 -11 -15 -16 -15 -6 0 -5 6 2 15 7 8 14 15 16 15 2
0 1 -7 -2 -15z m-51 -135 c-3 -12 -8 -19 -11 -16 -5 6 5 36 12 36 2 0 2 -9 -1
-20z"/>
<path d="M413 1820 c-3 -11 -13 -20 -22 -20 -10 0 -12 -3 -5 -8 6 -4 13 -13
15 -20 3 -7 9 5 15 27 6 23 9 41 7 41 -3 0 -7 -9 -10 -20z"/>
<path d="M620 1830 c-23 -7 -23 -8 -3 -9 12 -1 25 4 28 9 3 6 5 10 3 9 -2 -1
-14 -5 -28 -9z"/>
<path d="M3984 1798 c2 -21 14 -48 26 -60 l21 -23 -9 25 c-6 14 -18 41 -27 60
l-16 35 5 -37z"/>
<path d="M232 1796 c-6 -13 -14 -51 -18 -84 l-6 -59 -34 10 c-24 7 -40 7 -56
-1 l-23 -12 23 6 c12 3 38 0 57 -6 35 -11 35 -12 37 -73 1 -58 2 -59 5 -12 15
251 15 251 102 242 36 -4 49 -3 36 3 -11 5 -41 9 -66 9 -39 1 -47 -3 -57 -23z"/>
<path d="M4131 1810 c-1 -19 69 -232 80 -244 8 -9 -12 57 -60 199 -11 33 -20
53 -20 45z"/>
<path d="M382 1719 c-7 -19 -16 -30 -20 -24 -11 16 -30 16 -36 -1 -3 -8 -2
-13 3 -10 4 3 13 -7 20 -22 11 -25 10 -26 -4 -7 -14 18 -15 13 -14 -60 0 -53
-5 -93 -15 -117 -19 -45 -20 -63 -2 -28 21 38 88 267 84 286 -2 10 -7 4 -16
-17z"/>
<path d="M332 1730 c5 -16 36 -22 44 -9 3 5 1 9 -5 9 -5 0 -17 3 -27 7 -11 4
-15 2 -12 -7z"/>
<path d="M4002 1690 c0 -14 2 -19 5 -12 2 6 2 18 0 25 -3 6 -5 1 -5 -13z"/>
<path d="M3692 1670 c0 -19 2 -27 5 -17 2 9 2 25 0 35 -3 9 -5 1 -5 -18z"/>
<path d="M4011 1655 c1 -19 18 -51 18 -35 0 8 -4 22 -9 30 -5 8 -9 11 -9 5z"/>
<path d="M4557 1633 c-4 -3 -7 -12 -7 -19 0 -24 -69 -122 -91 -129 -16 -5 -19
-12 -14 -32 3 -14 12 -30 18 -37 65 -58 65 -58 86 -47 25 14 26 24 7 44 -13
13 -20 43 -17 77 1 12 3 12 10 2 7 -11 9 -11 14 2 4 9 13 16 22 16 9 0 15 9
15 25 0 14 -4 25 -9 25 -4 0 -7 13 -5 29 3 28 -16 57 -29 44z"/>
<path d="M80 1603 c0 -5 13 -22 28 -39 16 -16 41 -48 57 -72 27 -41 27 -43 15
-101 -12 -56 -11 -62 11 -98 12 -21 28 -45 36 -53 63 -72 73 -96 52 -117 -17
-17 -13 -216 5 -275 7 -26 11 -47 7 -46 -3 0 -70 0 -148 -1 l-143 -1 0 -400 0
-401 278 1 278 1 -4 34 c-2 18 3 48 12 66 55 119 111 300 127 410 l12 87 34 5
c43 7 119 51 133 77 10 18 7 20 -27 22 -21 0 -44 1 -51 1 -7 -1 -11 2 -8 5 4
3 -20 19 -51 35 -32 16 -69 38 -83 49 -50 39 -214 205 -273 278 -34 41 -64 77
-67 80 -13 12 -130 172 -130 178 0 4 7 39 15 77 16 75 19 113 6 81 -7 -17 -8
-17 -23 6 -25 38 -98 120 -98 111z m660 -897 c0 -2 -7 -7 -16 -10 -8 -3 -12
-2 -9 4 6 10 25 14 25 6z m-50 -20 c0 -2 -8 -10 -17 -17 -16 -13 -17 -12 -4 4
13 16 21 21 21 13z m-59 -82 c-11 -15 -21 -24 -21 -20 0 10 34 55 39 51 2 -2
-6 -16 -18 -31z"/>
<path d="M4032 1590 c0 -8 4 -26 8 -40 6 -20 8 -21 8 -5 0 11 -3 29 -8 40 -5
12 -8 14 -8 5z"/>
<path d="M4211 1545 c0 -5 6 -21 13 -33 13 -24 13 -24 13 7 0 18 -4 27 -7 20
-6 -8 -9 -7 -13 2 -3 8 -6 10 -6 4z"/>
<path d="M4051 1492 c-1 -13 50 -217 88 -357 27 -97 60 -194 79 -230 20 -40
98 -288 152 -488 39 -144 55 -332 35 -397 -6 -19 -2 -20 94 -20 l101 0 0 169
c0 166 -1 171 -34 268 -39 114 -132 343 -143 354 -4 4 -31 9 -59 10 l-52 2 9
31 c5 17 9 64 9 103 0 63 -5 85 -41 165 -76 174 -96 203 -165 232 -17 8 -31
20 -32 27 -1 22 -40 146 -41 131z"/>
<path d="M560 1438 c-12 -22 -12 -22 6 -6 10 10 15 20 12 24 -4 3 -12 -5 -18
-18z"/>
<path d="M4260 1424 c0 -6 9 -28 20 -50 10 -21 19 -34 19 -29 0 14 -38 93 -39
79z"/>
<path d="M4310 1294 c0 -5 7 -19 15 -30 8 -10 15 -28 15 -39 0 -16 2 -17 9 -6
10 15 4 30 -23 66 -8 11 -16 15 -16 9z"/>
<path d="M4363 1215 c-9 -21 -8 -34 9 -71 11 -25 22 -43 25 -40 3 3 -2 21 -11
41 -11 23 -15 46 -11 65 8 37 4 38 -12 5z"/>
<path d="M4428 1218 c-22 -22 -23 -38 -3 -38 8 0 17 11 21 25 8 33 3 36 -18
13z"/>
<path d="M4381 1190 c0 -8 4 -22 9 -30 12 -18 12 -2 0 25 -6 13 -9 15 -9 5z"/>
<path d="M251 1044 c0 -11 3 -14 6 -6 3 7 2 16 -1 19 -3 4 -6 -2 -5 -13z"/>
<path d="M4410 1055 c0 -5 5 -17 10 -25 5 -8 10 -10 10 -5 0 6 -5 17 -10 25
-5 8 -10 11 -10 5z"/>
<path d="M158 1003 c7 -3 16 -2 19 1 4 3 -2 6 -13 5 -11 0 -14 -3 -6 -6z"/>
<path d="M118 993 c7 -3 16 -2 19 1 4 3 -2 6 -13 5 -11 0 -14 -3 -6 -6z"/>
<path d="M4460 931 c0 -6 4 -13 10 -16 6 -3 7 1 4 9 -7 18 -14 21 -14 7z"/>
<path d="M4480 895 c0 -5 5 -17 10 -25 5 -8 10 -10 10 -5 0 6 -5 17 -10 25 -5
8 -10 11 -10 5z"/>
<path d="M4510 827 c0 -4 9 -25 20 -47 11 -22 20 -48 20 -59 0 -11 4 -22 9
-25 4 -3 11 -23 15 -45 12 -79 26 -54 26 48 0 73 -3 101 -12 103 -7 0 -23 1
-36 2 -12 1 -27 8 -32 16 -5 8 -10 11 -10 7z"/>
<path d="M1041 339 c0 -25 -10 -104 -21 -175 -27 -177 -30 -164 33 -164 45 0
53 3 53 19 0 10 -6 17 -12 14 -23 -8 -62 59 -60 102 5 92 6 106 14 102 4 -3 6
18 4 46 -4 83 -9 106 -11 56z"/>
<path d="M4201 184 c0 -11 3 -14 6 -6 3 7 2 16 -1 19 -3 4 -6 -2 -5 -13z"/>
<path d="M4211 133 c-1 -27 15 -39 23 -17 3 8 2 12 -3 9 -5 -3 -12 3 -14 12
-4 14 -5 13 -6 -4z"/>
<path d="M4224 26 c-8 -20 -1 -29 20 -24 13 3 13 6 1 22 -13 17 -15 18 -21 2z"/>
<path d="M4305 10 c-3 -5 1 -10 10 -10 9 0 13 5 10 10 -3 6 -8 10 -10 10 -2 0
-7 -4 -10 -10z"/>
</g>
</svg>
